<svg viewBox="0 0 980 460" fill="none" xmlns="http://www.w3.org/2000/svg">
  <defs>
    <radialGradient id="hubGlow" cx="50%" cy="50%" r="50%">
      <stop offset="0%" stop-color="#4f46e5" stop-opacity="0.15"/>
      <stop offset="100%" stop-color="#4f46e5" stop-opacity="0"/>
    </radialGradient>
    <linearGradient id="hubGrad" x1="400" y1="150" x2="580" y2="310">
      <stop offset="0%" stop-color="#6366f1"/>
      <stop offset="100%" stop-color="#4338ca"/>
    </linearGradient>
    <linearGradient id="pathIn" x1="0%" y1="0%" x2="100%" y2="0%">
      <stop offset="0%" stop-color="#e2e8f0"/>
      <stop offset="100%" stop-color="#a5b4fc"/>
    </linearGradient>
    <linearGradient id="pathOut" x1="0%" y1="0%" x2="100%" y2="0%">
      <stop offset="0%" stop-color="#a5b4fc"/>
      <stop offset="100%" stop-color="#c7d2fe"/>
    </linearGradient>
    <filter id="cardShadow" x="-6%" y="-10%" width="112%" height="128%">
      <feDropShadow dx="0" dy="2" stdDeviation="4" flood-color="#0f172a" flood-opacity="0.06"/>
    </filter>
    <filter id="hubShadow" x="-10%" y="-10%" width="120%" height="130%">
      <feDropShadow dx="0" dy="4" stdDeviation="14" flood-color="#4f46e5" flood-opacity="0.25"/>
    </filter>
  </defs>

  <!-- Background -->
  <rect width="980" height="460" rx="24" fill="#fafbfc"/>
  <rect x="1" y="1" width="978" height="458" rx="23" fill="none" stroke="#e2e8f0" stroke-width="1"/>

  <!-- Central glow -->
  <circle cx="490" cy="230" r="190" fill="url(#hubGlow)"/>

  <!-- LABEL: Your tools -->
  <text x="120" y="30" text-anchor="middle" font-size="11" font-weight="600" fill="#94a3b8" font-family="system-ui" letter-spacing="0.08em">YOUR TOOLS</text>

  <!-- SOURCE CARDS (left) -->

  <!-- Slack -->
  <g filter="url(#cardShadow)">
    <rect x="24" y="46" width="192" height="62" rx="14" fill="white"/>
    <rect x="24" y="46" width="192" height="62" rx="14" fill="none" stroke="#e2e8f0" stroke-width="1"/>
    <rect x="42" y="62" width="30" height="30" rx="7" fill="#4A154B"/>
    <rect x="49" y="69" width="7" height="7" rx="1.5" fill="#E01E5A"/>
    <rect x="58" y="69" width="7" height="7" rx="1.5" fill="#36C5F0"/>
    <rect x="49" y="78" width="7" height="7" rx="1.5" fill="#2EB67D"/>
    <rect x="58" y="78" width="7" height="7" rx="1.5" fill="#ECB22E"/>
    <text x="88" y="73" font-size="13" font-weight="600" fill="#0f172a" font-family="system-ui">Slack</text>
    <text x="88" y="90" font-size="10" fill="#94a3b8" font-family="system-ui">Messages &amp; threads</text>
  </g>

  <!-- Notion -->
  <g filter="url(#cardShadow)">
    <rect x="24" y="126" width="192" height="62" rx="14" fill="white"/>
    <rect x="24" y="126" width="192" height="62" rx="14" fill="none" stroke="#e2e8f0" stroke-width="1"/>
    <rect x="42" y="142" width="30" height="30" rx="7" fill="#191919"/>
    <text x="57" y="163" text-anchor="middle" font-size="16" font-weight="700" fill="white" font-family="system-ui">N</text>
    <text x="88" y="153" font-size="13" font-weight="600" fill="#0f172a" font-family="system-ui">Notion</text>
    <text x="88" y="170" font-size="10" fill="#94a3b8" font-family="system-ui">Docs &amp; wikis</text>
  </g>

  <!-- Zoom -->
  <g filter="url(#cardShadow)">
    <rect x="24" y="206" width="192" height="62" rx="14" fill="white"/>
    <rect x="24" y="206" width="192" height="62" rx="14" fill="none" stroke="#e2e8f0" stroke-width="1"/>
    <rect x="42" y="222" width="30" height="30" rx="7" fill="#2D8CFF"/>
    <rect x="48" y="230" width="13" height="10" rx="2.5" fill="white"/>
    <path d="M61 231l7-3.5v11l-7-3.5z" fill="white"/>
    <text x="88" y="233" font-size="13" font-weight="600" fill="#0f172a" font-family="system-ui">Zoom</text>
    <text x="88" y="250" font-size="10" fill="#94a3b8" font-family="system-ui">Call recordings</text>
  </g>

  <!-- Jira -->
  <g filter="url(#cardShadow)">
    <rect x="24" y="286" width="192" height="62" rx="14" fill="white"/>
    <rect x="24" y="286" width="192" height="62" rx="14" fill="none" stroke="#e2e8f0" stroke-width="1"/>
    <rect x="42" y="302" width="30" height="30" rx="7" fill="#0052CC"/>
    <path d="M57 310l8 7-8 7-8-7z" fill="white" opacity="0.9"/>
    <text x="88" y="313" font-size="13" font-weight="600" fill="#0f172a" font-family="system-ui">Jira</text>
    <text x="88" y="330" font-size="10" fill="#94a3b8" font-family="system-ui">Issues &amp; boards</text>
  </g>

  <!-- Salesforce -->
  <g filter="url(#cardShadow)">
    <rect x="24" y="366" width="192" height="62" rx="14" fill="white"/>
    <rect x="24" y="366" width="192" height="62" rx="14" fill="none" stroke="#e2e8f0" stroke-width="1"/>
    <rect x="42" y="382" width="30" height="30" rx="7" fill="#00A1E0"/>
    <path d="M50 394c0-3 2.2-5 4.5-5 1.3 0 2.5.6 3.2 1.6.4-.3 1-.4 1.4-.4 1.8 0 3.2 1.4 3.2 3.2 0 .2 0 .3-.04.5.6.5 1 1.1 1 1.8 0 1.4-1.2 2.5-2.5 2.5h-9c-1.4 0-2.6-1.1-2.6-2.5 0-.9.5-1.6 1.2-2-.1-.2-.15-.4-.15-.6 0-.3.1-.7.2-1z" fill="white"/>
    <text x="88" y="393" font-size="13" font-weight="600" fill="#0f172a" font-family="system-ui">Salesforce</text>
    <text x="88" y="410" font-size="10" fill="#94a3b8" font-family="system-ui">Customer data</text>
  </g>

  <!-- INPUT FLOW PATHS (curved) -->
  <path d="M216 77 C300 77, 340 190, 410 195" stroke="url(#pathIn)" stroke-width="1.5" stroke-dasharray="6 4" fill="none"/>
  <path d="M216 157 C300 157, 350 200, 410 210" stroke="url(#pathIn)" stroke-width="1.5" stroke-dasharray="6 4" fill="none"/>
  <path d="M216 237 C300 237, 350 225, 410 228" stroke="url(#pathIn)" stroke-width="1.5" stroke-dasharray="6 4" fill="none"/>
  <path d="M216 317 C300 317, 350 255, 410 248" stroke="url(#pathIn)" stroke-width="1.5" stroke-dasharray="6 4" fill="none"/>
  <path d="M216 397 C300 397, 340 270, 410 260" stroke="url(#pathIn)" stroke-width="1.5" stroke-dasharray="6 4" fill="none"/>

  <!-- DISCOVRLY HUB (center) -->
  <g filter="url(#hubShadow)">
    <rect x="410" y="155" width="170" height="150" rx="22" fill="url(#hubGrad)"/>
  </g>
  <circle cx="495" cy="200" r="18" fill="white" opacity="0.15"/>
  <text x="495" y="206" text-anchor="middle" font-size="20" fill="white" font-family="system-ui">⚡</text>
  <text x="495" y="244" text-anchor="middle" font-size="19" font-weight="700" fill="white" font-family="system-ui" letter-spacing="-0.02em">Discovrly</text>
  <text x="495" y="266" text-anchor="middle" font-size="11" fill="#c7d2fe" font-family="system-ui" letter-spacing="0.04em">AI Research OS</text>
  <rect x="422" y="167" width="146" height="126" rx="14" fill="none" stroke="white" stroke-width="0.5" opacity="0.2"/>

  <!-- OUTPUT FLOW PATHS -->
  <path d="M580 195 C640 195, 660 115, 720 115" stroke="url(#pathOut)" stroke-width="2" fill="none"/>
  <path d="M580 230 C650 230, 670 230, 720 230" stroke="url(#pathOut)" stroke-width="2" fill="none"/>
  <path d="M580 265 C640 265, 660 345, 720 345" stroke="url(#pathOut)" stroke-width="2" fill="none"/>
  <!-- Arrow heads -->
  <path d="M718 111l6 4-6 4" stroke="#a5b4fc" stroke-width="1.5" fill="none" stroke-linecap="round" stroke-linejoin="round"/>
  <path d="M718 226l6 4-6 4" stroke="#a5b4fc" stroke-width="1.5" fill="none" stroke-linecap="round" stroke-linejoin="round"/>
  <path d="M718 341l6 4-6 4" stroke="#a5b4fc" stroke-width="1.5" fill="none" stroke-linecap="round" stroke-linejoin="round"/>

  <!-- LABEL: Outputs -->
  <text x="840" y="62" text-anchor="middle" font-size="11" font-weight="600" fill="#94a3b8" font-family="system-ui" letter-spacing="0.08em">OUTPUTS</text>

  <!-- OUTPUT CARDS (right) -->

  <!-- Insights -->
  <g filter="url(#cardShadow)">
    <rect x="726" y="80" width="230" height="70" rx="16" fill="white"/>
    <rect x="726" y="80" width="230" height="70" rx="16" fill="none" stroke="#c7d2fe" stroke-width="1"/>
    <rect x="746" y="96" width="38" height="38" rx="10" fill="#e0e7ff"/>
    <text x="765" y="122" text-anchor="middle" font-size="19" font-family="system-ui">💡</text>
    <text x="800" y="110" font-size="14" font-weight="600" fill="#0f172a" font-family="system-ui">Insights &amp; Themes</text>
    <text x="800" y="128" font-size="10" fill="#94a3b8" font-family="system-ui">Auto-synthesized from research</text>
  </g>

  <!-- PRDs -->
  <g filter="url(#cardShadow)">
    <rect x="726" y="195" width="230" height="70" rx="16" fill="white"/>
    <rect x="726" y="195" width="230" height="70" rx="16" fill="none" stroke="#c7d2fe" stroke-width="1"/>
    <rect x="746" y="211" width="38" height="38" rx="10" fill="#ddd6fe"/>
    <text x="765" y="237" text-anchor="middle" font-size="19" font-family="system-ui">📄</text>
    <text x="800" y="225" font-size="14" font-weight="600" fill="#0f172a" font-family="system-ui">PRDs &amp; Stories</text>
    <text x="800" y="243" font-size="10" fill="#94a3b8" font-family="system-ui">Generated with full context</text>
  </g>

  <!-- Tickets -->
  <g filter="url(#cardShadow)">
    <rect x="726" y="310" width="230" height="70" rx="16" fill="white"/>
    <rect x="726" y="310" width="230" height="70" rx="16" fill="none" stroke="#c7d2fe" stroke-width="1"/>
    <rect x="746" y="326" width="38" height="38" rx="10" fill="#c7d2fe"/>
    <text x="765" y="352" text-anchor="middle" font-size="19" font-family="system-ui">🎫</text>
    <text x="800" y="340" font-size="14" font-weight="600" fill="#0f172a" font-family="system-ui">Jira &amp; Linear Tickets</text>
    <text x="800" y="358" font-size="10" fill="#94a3b8" font-family="system-ui">Ready to assign &amp; ship</text>
  </g>
</svg>
