<svg xmlns="http://www.w3.org/2000/svg" viewBox="0 0 24 24" width="24" height="24">
  <path d="M10.006 5.17a4.015 4.015 0 0 1 3.075-1.44c1.617 0 3.03.96 3.672 2.342a4.678 4.678 0 0 1 1.912-.408c2.59 0 4.69 2.106 4.69 4.703s-2.1 4.703-4.69 4.703a4.66 4.66 0 0 1-1.096-.132 3.652 3.652 0 0 1-3.294 2.076 3.64 3.64 0 0 1-1.66-.397 4.28 4.28 0 0 1-3.988 2.738 4.29 4.29 0 0 1-4.08-2.957A3.726 3.726 0 0 1 3.5 16.64 3.728 3.728 0 0 1 0 12.926a3.728 3.728 0 0 1 2.968-3.65 4.376 4.376 0 0 1-.157-1.15A4.4 4.4 0 0 1 7.2 3.73a4.38 4.38 0 0 1 2.806 1.44z" fill="#00A1E0"/>
</svg>
